<svg width="24" height="24" viewBox="0 0 24 24" fill="none" xmlns="http://www.w3.org/2000/svg">
<path d="M3.80979 8.58541C3.86966 8.40115 4.13034 8.40115 4.19021 8.58541L4.85315 10.6257C4.87993 10.7081 4.95672 10.7639 5.04336 10.7639H7.18869C7.38243 10.7639 7.46299 11.0119 7.30625 11.1257L5.57064 12.3867C5.50054 12.4377 5.47121 12.5279 5.49799 12.6103L6.16093 14.6507C6.2208 14.8349 6.0099 14.9881 5.85316 14.8743L4.11756 13.6133C4.04746 13.5623 3.95254 13.5623 3.88244 13.6133L2.14684 14.8743C1.9901 14.9881 1.7792 14.8349 1.83907 14.6507L2.50201 12.6103C2.52879 12.5279 2.49946 12.4377 2.42936 12.3867L0.693753 11.1257C0.53701 11.0119 0.617566 10.7639 0.811311 10.7639H2.95664C3.04328 10.7639 3.12007 10.7081 3.14685 10.6257L3.80979 8.58541Z" fill="#F04E40"/>
<path d="M11.8098 0.585409C11.8697 0.401147 12.1303 0.401148 12.1902 0.58541L12.8532 2.62574C12.8799 2.70814 12.9567 2.76393 13.0434 2.76393H15.1887C15.3824 2.76393 15.463 3.01186 15.3062 3.12574L13.5706 4.38673C13.5005 4.43765 13.4712 4.52793 13.498 4.61033L14.1609 6.65066C14.2208 6.83492 14.0099 6.98814 13.8532 6.87426L12.1176 5.61327C12.0475 5.56235 11.9525 5.56235 11.8824 5.61327L10.1468 6.87426C9.9901 6.98814 9.7792 6.83492 9.83907 6.65066L10.502 4.61033C10.5288 4.52793 10.4995 4.43765 10.4294 4.38673L8.69375 3.12574C8.53701 3.01185 8.61757 2.76393 8.81131 2.76393H10.9566C11.0433 2.76393 11.1201 2.70814 11.1468 2.62574L11.8098 0.585409Z" fill="#F04E40"/>
<path d="M11.8098 8.58541C11.8697 8.40115 12.1303 8.40115 12.1902 8.58541L12.8532 10.6257C12.8799 10.7081 12.9567 10.7639 13.0434 10.7639H15.1887C15.3824 10.7639 15.463 11.0119 15.3062 11.1257L13.5706 12.3867C13.5005 12.4377 13.4712 12.5279 13.498 12.6103L14.1609 14.6507C14.2208 14.8349 14.0099 14.9881 13.8532 14.8743L12.1176 13.6133C12.0475 13.5623 11.9525 13.5623 11.8824 13.6133L10.1468 14.8743C9.9901 14.9881 9.7792 14.8349 9.83907 14.6507L10.502 12.6103C10.5288 12.5279 10.4995 12.4377 10.4294 12.3867L8.69375 11.1257C8.53701 11.0119 8.61757 10.7639 8.81131 10.7639H10.9566C11.0433 10.7639 11.1201 10.7081 11.1468 10.6257L11.8098 8.58541Z" fill="#F04E40"/>
<path d="M19.8098 8.58541C19.8697 8.40115 20.1303 8.40115 20.1902 8.58541L20.8532 10.6257C20.8799 10.7081 20.9567 10.7639 21.0434 10.7639H23.1887C23.3824 10.7639 23.463 11.0119 23.3062 11.1257L21.5706 12.3867C21.5005 12.4377 21.4712 12.5279 21.498 12.6103L22.1609 14.6507C22.2208 14.8349 22.0099 14.9881 21.8532 14.8743L20.1176 13.6133C20.0475 13.5623 19.9525 13.5623 19.8824 13.6133L18.1468 14.8743C17.9901 14.9881 17.7792 14.8349 17.8391 14.6507L18.502 12.6103C18.5288 12.5279 18.4995 12.4377 18.4294 12.3867L16.6938 11.1257C16.537 11.0119 16.6176 10.7639 16.8113 10.7639H18.9566C19.0433 10.7639 19.1201 10.7081 19.1468 10.6257L19.8098 8.58541Z" fill="#F04E40"/>
<path d="M11.8098 16.5854C11.8697 16.4011 12.1303 16.4011 12.1902 16.5854L12.8532 18.6257C12.8799 18.7081 12.9567 18.7639 13.0434 18.7639H15.1887C15.3824 18.7639 15.463 19.0119 15.3062 19.1257L13.5706 20.3867C13.5005 20.4377 13.4712 20.5279 13.498 20.6103L14.1609 22.6507C14.2208 22.8349 14.0099 22.9881 13.8532 22.8743L12.1176 21.6133C12.0475 21.5623 11.9525 21.5623 11.8824 21.6133L10.1468 22.8743C9.9901 22.9881 9.7792 22.8349 9.83907 22.6507L10.502 20.6103C10.5288 20.5279 10.4995 20.4377 10.4294 20.3867L8.69375 19.1257C8.53701 19.0119 8.61757 18.7639 8.81131 18.7639H10.9566C11.0433 18.7639 11.1201 18.7081 11.1468 18.6257L11.8098 16.5854Z" fill="#F04E40"/>
</svg>
